# MagicaVoxel @ Ephtracy

# group
o 

# material
mtllib Bed.mtl
usemtl palette

# normals
vn -1 0 0
vn 1 0 0
vn 0 0 1
vn 0 0 -1
vn 0 -1 0
vn 0 1 0

# texcoords
vt 0.310547 0.5
vt 0.689453 0.5
vt 0.919922 0.5

# verts
v 0.1 5.8 0
v 0.1 5.8 -5
v 0.1 7 0
v 0.1 7 -5
v 0.2 2 -0.1
v 0.2 2 -0.5
v 0.2 2 -4.6
v 0.2 2 -5
v 0.2 5.8 -0.1
v 0.2 5.8 -0.5
v 0.2 5.8 -4.6
v 0.2 5.8 -5
v 12 2 -0.1
v 12 2 -0.5
v 12 2 -4.6
v 12 2 -5
v 12 5.8 -0.1
v 12 5.9 -0.1
v 12 5.9 -0.5
v 12 5.9 -4.6
v 12 5.9 -5
v 12.4 5.8 -0.5
v 12.4 5.8 -4.6
v 12.4 6 -0.5
v 12.4 6 -4.6
v 0.2 5.8 -0.5
v 0.2 5.8 -4.6
v 0.2 6 -0.5
v 0.2 6 -4.6
v 0.6 2 -0.1
v 0.6 2 -0.5
v 0.6 2 -4.6
v 0.6 2 -5
v 0.6 5.8 -0.1
v 0.6 5.9 -0.1
v 0.6 5.9 -0.5
v 0.6 5.9 -4.6
v 0.6 5.9 -5
v 12.4 2 -0.1
v 12.4 2 -0.5
v 12.4 2 -4.6
v 12.4 2 -5
v 12.4 5.8 -0.1
v 12.4 5.8 -0.5
v 12.4 5.8 -4.6
v 12.4 5.8 -5
v 12.5 5.8 0
v 12.5 5.8 -5
v 12.5 7 0
v 12.5 7 -5
v 0.1 5.8 0
v 0.1 7 0
v 12.5 5.8 0
v 12.5 7 0
v 0.2 2 -0.1
v 0.2 5.8 -0.1
v 0.6 2 -0.1
v 0.6 5.8 -0.1
v 12 2 -0.1
v 12 5.8 -0.1
v 12.4 2 -0.1
v 12.4 5.8 -0.1
v 0.2 2 -4.6
v 0.2 5.8 -4.6
v 0.2 6 -4.6
v 0.6 2 -4.6
v 0.6 5.9 -4.6
v 12 2 -4.6
v 12 5.9 -4.6
v 12.4 2 -4.6
v 12.4 5.8 -4.6
v 12.4 6 -4.6
v 0.6 5.8 -0.1
v 0.6 5.9 -0.1
v 12 5.8 -0.1
v 12 5.9 -0.1
v 0.2 2 -0.5
v 0.2 5.8 -0.5
v 0.2 6 -0.5
v 0.6 2 -0.5
v 0.6 5.9 -0.5
v 12 2 -0.5
v 12 5.9 -0.5
v 12.4 2 -0.5
v 12.4 5.8 -0.5
v 12.4 6 -0.5
v 0.1 5.8 -5
v 0.1 7 -5
v 0.2 2 -5
v 0.2 5.8 -5
v 0.2 6 -5
v 0.2 6.8 -5
v 0.6 2 -5
v 0.6 5.9 -5
v 12 2 -5
v 12 5.9 -5
v 12.4 2 -5
v 12.4 5.8 -5
v 12.4 6 -5
v 12.4 6.8 -5
v 12.5 5.8 -5
v 12.5 7 -5
v 0.2 2 -0.1
v 0.6 2 -0.1
v 12 2 -0.1
v 12.4 2 -0.1
v 0.2 2 -0.5
v 0.6 2 -0.5
v 12 2 -0.5
v 12.4 2 -0.5
v 0.2 2 -4.6
v 0.6 2 -4.6
v 12 2 -4.6
v 12.4 2 -4.6
v 0.2 2 -5
v 0.6 2 -5
v 12 2 -5
v 12.4 2 -5
v 0.1 5.8 0
v 12.5 5.8 0
v 0.2 5.8 -0.1
v 0.6 5.8 -0.1
v 12 5.8 -0.1
v 12.4 5.8 -0.1
v 0.2 5.8 -0.5
v 12.4 5.8 -0.5
v 0.2 5.8 -4.6
v 12.4 5.8 -4.6
v 0.1 5.8 -5
v 0.2 5.8 -5
v 12.4 5.8 -5
v 12.5 5.8 -5
v 0.6 5.9 -0.1
v 12 5.9 -0.1
v 0.6 5.9 -0.5
v 12 5.9 -0.5
v 0.6 5.9 -4.6
v 12 5.9 -4.6
v 0.6 5.9 -5
v 12 5.9 -5
v 0.2 6 -0.5
v 12.4 6 -0.5
v 0.2 6 -4.6
v 12.4 6 -4.6
v 0.1 7 0
v 12.5 7 0
v 0.1 7 -5
v 12.5 7 -5

# faces
f 3/2/1 2/2/1 1/2/1
f 4/2/1 2/2/1 3/2/1
f 9/1/1 6/1/1 5/1/1
f 10/1/1 6/1/1 9/1/1
f 11/1/1 8/1/1 7/1/1
f 12/1/1 8/1/1 11/1/1
f 17/1/1 14/1/1 13/1/1
f 18/1/1 14/1/1 17/1/1
f 19/1/1 14/1/1 18/1/1
f 20/1/1 16/1/1 15/1/1
f 21/1/1 16/1/1 20/1/1
f 24/2/1 23/2/1 22/2/1
f 25/2/1 23/2/1 24/2/1
f 26/2/2 27/2/2 28/2/2
f 28/2/2 27/2/2 29/2/2
f 30/1/2 31/1/2 34/1/2
f 34/1/2 31/1/2 35/1/2
f 35/1/2 31/1/2 36/1/2
f 32/1/2 33/1/2 37/1/2
f 37/1/2 33/1/2 38/1/2
f 39/1/2 40/1/2 43/1/2
f 43/1/2 40/1/2 44/1/2
f 41/1/2 42/1/2 45/1/2
f 45/1/2 42/1/2 46/1/2
f 47/2/2 48/2/2 49/2/2
f 49/2/2 48/2/2 50/2/2
f 53/2/3 52/2/3 51/2/3
f 54/2/3 52/2/3 53/2/3
f 57/1/3 56/1/3 55/1/3
f 58/1/3 56/1/3 57/1/3
f 61/1/3 60/1/3 59/1/3
f 62/1/3 60/1/3 61/1/3
f 66/1/3 64/1/3 63/1/3
f 66/1/3 65/1/3 64/1/3
f 67/1/3 65/1/3 66/1/3
f 69/1/3 65/1/3 67/1/3
f 70/1/3 69/1/3 68/1/3
f 71/1/3 69/1/3 70/1/3
f 72/1/3 65/1/3 69/1/3
f 72/1/3 69/1/3 71/1/3
f 73/2/4 74/2/4 75/2/4
f 75/2/4 74/2/4 76/2/4
f 77/1/4 78/1/4 80/1/4
f 78/1/4 79/1/4 80/1/4
f 80/1/4 79/1/4 81/1/4
f 81/1/4 79/1/4 83/1/4
f 82/1/4 83/1/4 84/1/4
f 84/1/4 83/1/4 85/1/4
f 83/1/4 79/1/4 86/1/4
f 85/1/4 83/1/4 86/1/4
f 87/2/4 88/2/4 90/2/4
f 90/2/4 88/2/4 91/2/4
f 91/2/4 88/2/4 92/2/4
f 89/1/4 90/1/4 93/1/4
f 90/1/4 91/1/4 93/1/4
f 93/1/4 91/1/4 94/1/4
f 94/1/4 91/1/4 96/1/4
f 95/1/4 96/1/4 97/1/4
f 97/1/4 96/1/4 98/1/4
f 91/3/4 92/3/4 99/3/4
f 98/1/4 96/1/4 99/1/4
f 96/1/4 91/1/4 99/1/4
f 92/2/4 88/2/4 100/2/4
f 99/3/4 92/3/4 100/3/4
f 98/2/4 99/2/4 101/2/4
f 99/2/4 100/2/4 101/2/4
f 100/2/4 88/2/4 102/2/4
f 101/2/4 100/2/4 102/2/4
f 107/1/5 104/1/5 103/1/5
f 108/1/5 104/1/5 107/1/5
f 109/1/5 106/1/5 105/1/5
f 110/1/5 106/1/5 109/1/5
f 115/1/5 112/1/5 111/1/5
f 116/1/5 112/1/5 115/1/5
f 117/1/5 114/1/5 113/1/5
f 118/1/5 114/1/5 117/1/5
f 121/2/5 120/2/5 119/2/5
f 122/2/5 120/2/5 121/2/5
f 123/2/5 120/2/5 122/2/5
f 124/2/5 120/2/5 123/2/5
f 125/2/5 121/2/5 119/2/5
f 126/2/5 120/2/5 124/2/5
f 127/2/5 125/2/5 119/2/5
f 128/2/5 120/2/5 126/2/5
f 129/2/5 127/2/5 119/2/5
f 130/2/5 127/2/5 129/2/5
f 131/2/5 120/2/5 128/2/5
f 132/2/5 120/2/5 131/2/5
f 135/1/5 134/1/5 133/1/5
f 136/1/5 134/1/5 135/1/5
f 139/1/5 138/1/5 137/1/5
f 140/1/5 138/1/5 139/1/5
f 143/3/5 142/3/5 141/3/5
f 144/3/5 142/3/5 143/3/5
f 145/2/6 146/2/6 147/2/6
f 147/2/6 146/2/6 148/2/6
