# MagicaVoxel @ Ephtracy

# group
o 

# material
mtllib Cassette Player.mtl
usemtl palette

# normals
vn -1 0 0
vn 1 0 0
vn 0 0 1
vn 0 0 -1
vn 0 -1 0
vn 0 1 0

# texcoords
vt 0.494141 0.5
vt 0.919922 0.5
vt 0.927734 0.5
vt 0.962891 0.5
vt 0.986328 0.5
vt 0.990234 0.5

# verts
v 0 2 0
v 0 2 -1
v 0 4.9 0
v 0 4.9 -1
v 3.5 4.9 -0.8
v 3.5 4.9 -0.9
v 3.5 6.5 -0.8
v 3.5 6.5 -0.9
v 3.5 6.6 -0.8
v 3.5 6.6 -0.9
v 3.6 4.9 -0.8
v 3.6 4.9 -0.9
v 3.6 6.5 -0.8
v 3.6 6.5 -0.9
v 3.6 6.6 -0.8
v 3.6 6.6 -0.9
v 4 2 0
v 4 2 -1
v 4 4.9 0
v 4 4.9 -1
v 0 2 0
v 0 4.9 0
v 0.2 2.8 0
v 0.2 3.9 0
v 0.3 2.9 0
v 0.3 3.8 0
v 0.4 3.2 0
v 0.4 3.7 0
v 0.6 3.4 0
v 0.6 3.5 0
v 0.7 3.4 0
v 0.7 3.5 0
v 1 3.4 0
v 1 3.5 0
v 1.1 3.4 0
v 1.1 3.5 0
v 1.3 3.2 0
v 1.3 3.7 0
v 1.4 2.9 0
v 1.4 3.8 0
v 1.5 2.8 0
v 1.5 3.9 0
v 1.7 2.5 0
v 1.7 2.6 0
v 1.7 2.7 0
v 1.7 2.8 0
v 1.7 2.9 0
v 1.7 3 0
v 1.7 3.1 0
v 1.7 3.2 0
v 1.7 3.3 0
v 1.7 3.4 0
v 1.7 3.5 0
v 1.7 3.6 0
v 1.7 3.7 0
v 1.7 3.8 0
v 1.7 3.9 0
v 1.7 4 0
v 1.7 4.1 0
v 1.7 4.2 0
v 1.9 2.5 0
v 1.9 2.6 0
v 1.9 2.7 0
v 1.9 2.8 0
v 1.9 2.9 0
v 1.9 3 0
v 1.9 3.1 0
v 1.9 3.2 0
v 1.9 3.3 0
v 1.9 3.4 0
v 1.9 3.5 0
v 1.9 3.6 0
v 1.9 3.7 0
v 1.9 3.8 0
v 1.9 3.9 0
v 1.9 4 0
v 1.9 4.1 0
v 1.9 4.2 0
v 2 2.5 0
v 2 2.6 0
v 2 2.7 0
v 2 2.8 0
v 2 2.9 0
v 2 3 0
v 2 3.1 0
v 2 3.2 0
v 2 3.3 0
v 2 3.4 0
v 2 3.5 0
v 2 3.6 0
v 2 3.7 0
v 2 3.8 0
v 2 3.9 0
v 2 4 0
v 2 4.1 0
v 2 4.2 0
v 2.1 3.2 0
v 2.1 3.3 0
v 2.1 3.4 0
v 2.1 3.5 0
v 2.2 2.5 0
v 2.2 2.6 0
v 2.2 2.7 0
v 2.2 2.8 0
v 2.2 2.9 0
v 2.2 3 0
v 2.2 3.1 0
v 2.2 3.2 0
v 2.2 3.3 0
v 2.2 3.4 0
v 2.2 3.5 0
v 2.2 3.6 0
v 2.2 3.7 0
v 2.2 3.8 0
v 2.2 3.9 0
v 2.2 4 0
v 2.2 4.1 0
v 2.2 4.2 0
v 2.3 2.5 0
v 2.3 2.6 0
v 2.3 2.7 0
v 2.3 2.8 0
v 2.3 2.9 0
v 2.3 3 0
v 2.3 3.1 0
v 2.3 3.2 0
v 2.3 3.3 0
v 2.3 3.4 0
v 2.3 3.5 0
v 2.3 3.6 0
v 2.3 3.7 0
v 2.3 3.8 0
v 2.3 3.9 0
v 2.3 4 0
v 2.3 4.1 0
v 2.3 4.2 0
v 2.5 2.5 0
v 2.5 2.6 0
v 2.5 2.7 0
v 2.5 2.8 0
v 2.5 2.9 0
v 2.5 3 0
v 2.5 3.1 0
v 2.5 3.2 0
v 2.5 3.3 0
v 2.5 3.4 0
v 2.5 3.5 0
v 2.5 3.6 0
v 2.5 3.7 0
v 2.5 3.8 0
v 2.5 3.9 0
v 2.5 4 0
v 2.5 4.1 0
v 2.5 4.2 0
v 2.6 2.5 0
v 2.6 2.6 0
v 2.6 2.7 0
v 2.6 2.8 0
v 2.6 2.9 0
v 2.6 3 0
v 2.6 3.1 0
v 2.6 3.2 0
v 2.6 3.3 0
v 2.6 3.4 0
v 2.6 3.5 0
v 2.6 3.6 0
v 2.6 3.7 0
v 2.6 3.8 0
v 2.6 3.9 0
v 2.6 4 0
v 2.6 4.1 0
v 2.6 4.2 0
v 2.8 2.5 0
v 2.8 2.6 0
v 2.8 2.7 0
v 2.8 2.8 0
v 2.8 2.9 0
v 2.8 3 0
v 2.8 3.1 0
v 2.8 3.2 0
v 2.8 3.3 0
v 2.8 3.4 0
v 2.8 3.5 0
v 2.8 3.6 0
v 2.8 3.7 0
v 2.8 3.8 0
v 2.8 3.9 0
v 2.8 4 0
v 2.8 4.1 0
v 2.8 4.2 0
v 2.9 2.5 0
v 2.9 2.6 0
v 2.9 2.7 0
v 2.9 2.8 0
v 2.9 2.9 0
v 2.9 3 0
v 2.9 3.1 0
v 2.9 3.2 0
v 2.9 3.3 0
v 2.9 3.4 0
v 2.9 3.5 0
v 2.9 3.6 0
v 2.9 3.7 0
v 2.9 3.8 0
v 2.9 3.9 0
v 2.9 4 0
v 2.9 4.1 0
v 2.9 4.2 0
v 3.1 2.5 0
v 3.1 2.6 0
v 3.1 2.7 0
v 3.1 2.8 0
v 3.1 2.9 0
v 3.1 3 0
v 3.1 3.1 0
v 3.1 3.2 0
v 3.1 3.3 0
v 3.1 3.4 0
v 3.1 3.5 0
v 3.1 3.6 0
v 3.1 3.7 0
v 3.1 3.8 0
v 3.1 3.9 0
v 3.1 4 0
v 3.1 4.1 0
v 3.1 4.2 0
v 3.2 2.5 0
v 3.2 2.6 0
v 3.2 2.7 0
v 3.2 2.8 0
v 3.2 2.9 0
v 3.2 3 0
v 3.2 3.1 0
v 3.2 3.2 0
v 3.2 3.3 0
v 3.2 3.4 0
v 3.2 3.5 0
v 3.2 3.6 0
v 3.2 3.7 0
v 3.2 3.8 0
v 3.2 3.9 0
v 3.2 4 0
v 3.2 4.1 0
v 3.2 4.2 0
v 3.4 2.5 0
v 3.4 2.6 0
v 3.4 2.7 0
v 3.4 2.8 0
v 3.4 2.9 0
v 3.4 3 0
v 3.4 3.1 0
v 3.4 3.2 0
v 3.4 3.3 0
v 3.4 3.4 0
v 3.4 3.5 0
v 3.4 3.6 0
v 3.4 3.7 0
v 3.4 3.8 0
v 3.4 3.9 0
v 3.4 4 0
v 3.4 4.1 0
v 3.4 4.2 0
v 3.5 2.5 0
v 3.5 2.6 0
v 3.5 2.7 0
v 3.5 2.8 0
v 3.5 2.9 0
v 3.5 3 0
v 3.5 3.1 0
v 3.5 3.2 0
v 3.5 3.3 0
v 3.5 3.4 0
v 3.5 3.5 0
v 3.5 3.6 0
v 3.5 3.7 0
v 3.5 3.8 0
v 3.5 3.9 0
v 3.5 4 0
v 3.5 4.1 0
v 3.5 4.2 0
v 3.6 3.2 0
v 3.6 3.3 0
v 3.6 3.4 0
v 3.6 3.5 0
v 3.7 2.5 0
v 3.7 2.6 0
v 3.7 2.7 0
v 3.7 2.8 0
v 3.7 2.9 0
v 3.7 3 0
v 3.7 3.1 0
v 3.7 3.2 0
v 3.7 3.3 0
v 3.7 3.4 0
v 3.7 3.5 0
v 3.7 3.6 0
v 3.7 3.7 0
v 3.7 3.8 0
v 3.7 3.9 0
v 3.7 4 0
v 3.7 4.1 0
v 3.7 4.2 0
v 4 2 0
v 4 4.9 0
v 3.5 4.9 -0.8
v 3.5 6.5 -0.8
v 3.5 6.6 -0.8
v 3.6 4.9 -0.8
v 3.6 6.5 -0.8
v 3.6 6.6 -0.8
v 3.5 4.9 -0.9
v 3.5 6.5 -0.9
v 3.5 6.6 -0.9
v 3.6 4.9 -0.9
v 3.6 6.5 -0.9
v 3.6 6.6 -0.9
v 0 2 -1
v 0 4.9 -1
v 4 2 -1
v 4 4.9 -1
v 0 2 0
v 4 2 0
v 0.1 2 -0.1
v 3.9 2 -0.1
v 0.1 2 -0.9
v 3.9 2 -0.9
v 0 2 -1
v 4 2 -1
v 0 4.9 0
v 4 4.9 0
v 3.5 4.9 -0.8
v 3.6 4.9 -0.8
v 3.5 4.9 -0.9
v 3.6 4.9 -0.9
v 0 4.9 -1
v 4 4.9 -1
v 3.5 6.6 -0.8
v 3.6 6.6 -0.8
v 3.5 6.6 -0.9
v 3.6 6.6 -0.9

# faces
f 3/2/1 2/2/1 1/2/1
f 4/2/1 2/2/1 3/2/1
f 7/3/1 6/3/1 5/3/1
f 8/3/1 6/3/1 7/3/1
f 9/2/1 8/2/1 7/2/1
f 10/2/1 8/2/1 9/2/1
f 11/3/2 12/3/2 13/3/2
f 13/3/2 12/3/2 14/3/2
f 13/2/2 14/2/2 15/2/2
f 15/2/2 14/2/2 16/2/2
f 17/2/2 18/2/2 19/2/2
f 19/2/2 18/2/2 20/2/2
f 23/2/3 22/2/3 21/2/3
f 24/2/3 22/2/3 23/2/3
f 25/6/3 24/6/3 23/6/3
f 26/6/3 24/6/3 25/6/3
f 27/5/3 26/5/3 25/5/3
f 28/5/3 26/5/3 27/5/3
f 29/2/3 28/2/3 27/2/3
f 30/2/3 28/2/3 29/2/3
f 31/2/3 29/2/3 27/2/3
f 31/6/3 30/6/3 29/6/3
f 32/2/3 28/2/3 30/2/3
f 32/6/3 30/6/3 31/6/3
f 33/2/3 31/2/3 27/2/3
f 33/2/3 32/2/3 31/2/3
f 34/2/3 28/2/3 32/2/3
f 34/2/3 32/2/3 33/2/3
f 35/2/3 33/2/3 27/2/3
f 35/6/3 34/6/3 33/6/3
f 36/2/3 28/2/3 34/2/3
f 36/6/3 34/6/3 35/6/3
f 37/5/3 27/5/3 25/5/3
f 37/2/3 35/2/3 27/2/3
f 37/2/3 36/2/3 35/2/3
f 38/2/3 28/2/3 36/2/3
f 38/2/3 36/2/3 37/2/3
f 38/5/3 26/5/3 28/5/3
f 39/6/3 25/6/3 23/6/3
f 39/5/3 37/5/3 25/5/3
f 39/5/3 38/5/3 37/5/3
f 40/5/3 26/5/3 38/5/3
f 40/5/3 38/5/3 39/5/3
f 40/6/3 24/6/3 26/6/3
f 41/2/3 23/2/3 21/2/3
f 41/6/3 39/6/3 23/6/3
f 41/6/3 40/6/3 39/6/3
f 42/6/3 24/6/3 40/6/3
f 42/6/3 40/6/3 41/6/3
f 42/2/3 22/2/3 24/2/3
f 43/2/3 41/2/3 21/2/3
f 43/2/3 42/2/3 41/2/3
f 44/2/3 42/2/3 43/2/3
f 45/2/3 42/2/3 44/2/3
f 46/2/3 42/2/3 45/2/3
f 47/2/3 42/2/3 46/2/3
f 48/2/3 42/2/3 47/2/3
f 49/2/3 42/2/3 48/2/3
f 50/2/3 42/2/3 49/2/3
f 51/2/3 42/2/3 50/2/3
f 52/2/3 42/2/3 51/2/3
f 53/2/3 42/2/3 52/2/3
f 54/2/3 42/2/3 53/2/3
f 55/2/3 42/2/3 54/2/3
f 56/2/3 42/2/3 55/2/3
f 57/2/3 22/2/3 42/2/3
f 57/2/3 42/2/3 56/2/3
f 58/2/3 22/2/3 57/2/3
f 59/2/3 22/2/3 58/2/3
f 60/2/3 22/2/3 59/2/3
f 61/2/3 43/2/3 21/2/3
f 61/4/3 44/4/3 43/4/3
f 62/2/3 45/2/3 44/2/3
f 62/4/3 44/4/3 61/4/3
f 63/4/3 46/4/3 45/4/3
f 63/2/3 45/2/3 62/2/3
f 64/2/3 47/2/3 46/2/3
f 64/4/3 46/4/3 63/4/3
f 65/4/3 48/4/3 47/4/3
f 65/2/3 47/2/3 64/2/3
f 66/2/3 49/2/3 48/2/3
f 66/4/3 48/4/3 65/4/3
f 67/4/3 50/4/3 49/4/3
f 67/2/3 49/2/3 66/2/3
f 68/2/3 51/2/3 50/2/3
f 68/4/3 50/4/3 67/4/3
f 69/4/3 52/4/3 51/4/3
f 69/2/3 51/2/3 68/2/3
f 70/2/3 53/2/3 52/2/3
f 70/4/3 52/4/3 69/4/3
f 71/4/3 54/4/3 53/4/3
f 71/2/3 53/2/3 70/2/3
f 72/2/3 55/2/3 54/2/3
f 72/4/3 54/4/3 71/4/3
f 73/4/3 56/4/3 55/4/3
f 73/2/3 55/2/3 72/2/3
f 74/2/3 57/2/3 56/2/3
f 74/4/3 56/4/3 73/4/3
f 75/4/3 58/4/3 57/4/3
f 75/2/3 57/2/3 74/2/3
f 76/2/3 59/2/3 58/2/3
f 76/4/3 58/4/3 75/4/3
f 77/4/3 60/4/3 59/4/3
f 77/2/3 59/2/3 76/2/3
f 78/2/3 22/2/3 60/2/3
f 78/4/3 60/4/3 77/4/3
f 79/2/3 72/2/3 71/2/3
f 79/2/3 77/2/3 76/2/3
f 79/2/3 78/2/3 77/2/3
f 79/2/3 75/2/3 74/2/3
f 79/2/3 74/2/3 73/2/3
f 79/2/3 73/2/3 72/2/3
f 79/2/3 71/2/3 70/2/3
f 79/2/3 70/2/3 69/2/3
f 79/2/3 69/2/3 68/2/3
f 79/2/3 68/2/3 67/2/3
f 79/2/3 67/2/3 66/2/3
f 79/2/3 66/2/3 65/2/3
f 79/2/3 65/2/3 64/2/3
f 79/2/3 64/2/3 63/2/3
f 79/2/3 63/2/3 62/2/3
f 79/2/3 62/2/3 61/2/3
f 79/2/3 61/2/3 21/2/3
f 79/2/3 76/2/3 75/2/3
f 80/2/3 78/2/3 79/2/3
f 81/2/3 78/2/3 80/2/3
f 82/2/3 78/2/3 81/2/3
f 83/2/3 78/2/3 82/2/3
f 84/2/3 78/2/3 83/2/3
f 85/2/3 78/2/3 84/2/3
f 86/2/3 78/2/3 85/2/3
f 87/2/3 78/2/3 86/2/3
f 88/2/3 78/2/3 87/2/3
f 89/2/3 78/2/3 88/2/3
f 90/2/3 78/2/3 89/2/3
f 91/2/3 78/2/3 90/2/3
f 92/2/3 78/2/3 91/2/3
f 93/2/3 78/2/3 92/2/3
f 94/2/3 78/2/3 93/2/3
f 95/2/3 78/2/3 94/2/3
f 96/2/3 22/2/3 78/2/3
f 96/2/3 78/2/3 95/2/3
f 97/4/3 86/4/3 85/4/3
f 97/2/3 87/2/3 86/2/3
f 98/4/3 88/4/3 87/4/3
f 98/2/3 87/2/3 97/2/3
f 99/2/3 89/2/3 88/2/3
f 99/4/3 88/4/3 98/4/3
f 100/4/3 90/4/3 89/4/3
f 100/2/3 89/2/3 99/2/3
f 101/2/3 79/2/3 21/2/3
f 101/4/3 80/4/3 79/4/3
f 102/2/3 81/2/3 80/2/3
f 102/4/3 80/4/3 101/4/3
f 103/4/3 82/4/3 81/4/3
f 103/2/3 81/2/3 102/2/3
f 104/2/3 83/2/3 82/2/3
f 104/4/3 82/4/3 103/4/3
f 105/4/3 84/4/3 83/4/3
f 105/2/3 83/2/3 104/2/3
f 106/2/3 85/2/3 84/2/3
f 106/4/3 84/4/3 105/4/3
f 107/4/3 97/4/3 85/4/3
f 107/2/3 85/2/3 106/2/3
f 108/5/3 98/5/3 97/5/3
f 108/4/3 97/4/3 107/4/3
f 109/4/3 99/4/3 98/4/3
f 109/5/3 98/5/3 108/5/3
f 110/5/3 100/5/3 99/5/3
f 110/4/3 99/4/3 109/4/3
f 111/4/3 90/4/3 100/4/3
f 111/5/3 100/5/3 110/5/3
f 112/2/3 91/2/3 90/2/3
f 112/4/3 90/4/3 111/4/3
f 113/4/3 92/4/3 91/4/3
f 113/2/3 91/2/3 112/2/3
f 114/2/3 93/2/3 92/2/3
f 114/4/3 92/4/3 113/4/3
f 115/4/3 94/4/3 93/4/3
f 115/2/3 93/2/3 114/2/3
f 116/2/3 95/2/3 94/2/3
f 116/4/3 94/4/3 115/4/3
f 117/4/3 96/4/3 95/4/3
f 117/2/3 95/2/3 116/2/3
f 118/2/3 22/2/3 96/2/3
f 118/4/3 96/4/3 117/4/3
f 119/2/3 101/2/3 21/2/3
f 119/2/3 102/2/3 101/2/3
f 119/2/3 103/2/3 102/2/3
f 119/2/3 104/2/3 103/2/3
f 119/2/3 105/2/3 104/2/3
f 120/2/3 105/2/3 119/2/3
f 121/2/3 105/2/3 120/2/3
f 122/2/3 105/2/3 121/2/3
f 123/5/3 110/5/3 109/5/3
f 123/2/3 105/2/3 122/2/3
f 123/5/3 109/5/3 108/5/3
f 123/5/3 114/5/3 113/5/3
f 123/5/3 113/5/3 112/5/3
f 123/5/3 112/5/3 111/5/3
f 123/5/3 111/5/3 110/5/3
f 123/5/3 108/5/3 107/5/3
f 123/5/3 107/5/3 106/5/3
f 123/5/3 106/5/3 105/5/3
f 124/5/3 114/5/3 123/5/3
f 125/5/3 114/5/3 124/5/3
f 126/5/3 114/5/3 125/5/3
f 127/5/3 114/5/3 126/5/3
f 128/5/3 114/5/3 127/5/3
f 129/5/3 114/5/3 128/5/3
f 130/5/3 114/5/3 129/5/3
f 131/5/3 114/5/3 130/5/3
f 132/2/3 115/2/3 114/2/3
f 132/5/3 114/5/3 131/5/3
f 132/2/3 118/2/3 117/2/3
f 132/2/3 116/2/3 115/2/3
f 132/2/3 117/2/3 116/2/3
f 133/2/3 118/2/3 132/2/3
f 134/2/3 118/2/3 133/2/3
f 135/2/3 118/2/3 134/2/3
f 136/2/3 22/2/3 118/2/3
f 136/2/3 118/2/3 135/2/3
f 137/4/3 120/4/3 119/4/3
f 137/2/3 119/2/3 21/2/3
f 138/2/3 121/2/3 120/2/3
f 138/4/3 120/4/3 137/4/3
f 139/4/3 122/4/3 121/4/3
f 139/2/3 121/2/3 138/2/3
f 140/5/3 123/5/3 122/5/3
f 140/4/3 122/4/3 139/4/3
f 141/4/3 124/4/3 123/4/3
f 141/5/3 123/5/3 140/5/3
f 142/5/3 125/5/3 124/5/3
f 142/4/3 124/4/3 141/4/3
f 143/4/3 126/4/3 125/4/3
f 143/5/3 125/5/3 142/5/3
f 144/5/3 127/5/3 126/5/3
f 144/4/3 126/4/3 143/4/3
f 145/4/3 128/4/3 127/4/3
f 145/5/3 127/5/3 144/5/3
f 146/5/3 129/5/3 128/5/3
f 146/4/3 128/4/3 145/4/3
f 147/4/3 130/4/3 129/4/3
f 147/5/3 129/5/3 146/5/3
f 148/5/3 131/5/3 130/5/3
f 148/4/3 130/4/3 147/4/3
f 149/4/3 132/4/3 131/4/3
f 149/5/3 131/5/3 148/5/3
f 150/5/3 133/5/3 132/5/3
f 150/4/3 132/4/3 149/4/3
f 151/4/3 134/4/3 133/4/3
f 151/5/3 133/5/3 150/5/3
f 152/2/3 135/2/3 134/2/3
f 152/4/3 134/4/3 151/4/3
f 153/4/3 136/4/3 135/4/3
f 153/2/3 135/2/3 152/2/3
f 154/2/3 22/2/3 136/2/3
f 154/4/3 136/4/3 153/4/3
f 155/2/3 138/2/3 137/2/3
f 155/2/3 137/2/3 21/2/3
f 155/2/3 139/2/3 138/2/3
f 156/2/3 139/2/3 155/2/3
f 157/5/3 147/5/3 146/5/3
f 157/2/3 139/2/3 156/2/3
f 157/5/3 151/5/3 150/5/3
f 157/5/3 146/5/3 145/5/3
f 157/5/3 149/5/3 148/5/3
f 157/5/3 148/5/3 147/5/3
f 157/5/3 143/5/3 142/5/3
f 157/5/3 142/5/3 141/5/3
f 157/5/3 141/5/3 140/5/3
f 157/5/3 140/5/3 139/5/3
f 157/5/3 150/5/3 149/5/3
f 157/5/3 144/5/3 143/5/3
f 157/5/3 145/5/3 144/5/3
f 157/5/3 152/5/3 151/5/3
f 158/5/3 152/5/3 157/5/3
f 159/5/3 152/5/3 158/5/3
f 160/5/3 152/5/3 159/5/3
f 161/5/3 152/5/3 160/5/3
f 162/5/3 152/5/3 161/5/3
f 163/5/3 152/5/3 162/5/3
f 164/5/3 152/5/3 163/5/3
f 165/5/3 152/5/3 164/5/3
f 166/5/3 152/5/3 165/5/3
f 167/5/3 152/5/3 166/5/3
f 168/5/3 152/5/3 167/5/3
f 169/5/3 152/5/3 168/5/3
f 170/2/3 154/2/3 153/2/3
f 170/5/3 152/5/3 169/5/3
f 170/2/3 153/2/3 152/2/3
f 171/2/3 154/2/3 170/2/3
f 172/2/3 22/2/3 154/2/3
f 172/2/3 154/2/3 171/2/3
f 173/4/3 156/4/3 155/4/3
f 173/2/3 155/2/3 21/2/3
f 174/5/3 157/5/3 156/5/3
f 174/4/3 156/4/3 173/4/3
f 175/4/3 158/4/3 157/4/3
f 175/5/3 157/5/3 174/5/3
f 176/5/3 159/5/3 158/5/3
f 176/4/3 158/4/3 175/4/3
f 177/4/3 160/4/3 159/4/3
f 177/5/3 159/5/3 176/5/3
f 178/5/3 161/5/3 160/5/3
f 178/4/3 160/4/3 177/4/3
f 179/4/3 162/4/3 161/4/3
f 179/5/3 161/5/3 178/5/3
f 180/5/3 163/5/3 162/5/3
f 180/4/3 162/4/3 179/4/3
f 181/4/3 164/4/3 163/4/3
f 181/5/3 163/5/3 180/5/3
f 182/5/3 165/5/3 164/5/3
f 182/4/3 164/4/3 181/4/3
f 183/4/3 166/4/3 165/4/3
f 183/5/3 165/5/3 182/5/3
f 184/5/3 167/5/3 166/5/3
f 184/4/3 166/4/3 183/4/3
f 185/4/3 168/4/3 167/4/3
f 185/5/3 167/5/3 184/5/3
f 186/5/3 169/5/3 168/5/3
f 186/4/3 168/4/3 185/4/3
f 187/4/3 170/4/3 169/4/3
f 187/5/3 169/5/3 186/5/3
f 188/5/3 171/5/3 170/5/3
f 188/4/3 170/4/3 187/4/3
f 189/4/3 172/4/3 171/4/3
f 189/5/3 171/5/3 188/5/3
f 190/2/3 22/2/3 172/2/3
f 190/4/3 172/4/3 189/4/3
f 191/2/3 173/2/3 21/2/3
f 191/2/3 174/2/3 173/2/3
f 192/5/3 175/5/3 174/5/3
f 192/2/3 174/2/3 191/2/3
f 192/5/3 176/5/3 175/5/3
f 192/5/3 177/5/3 176/5/3
f 192/5/3 178/5/3 177/5/3
f 192/5/3 179/5/3 178/5/3
f 192/5/3 181/5/3 180/5/3
f 192/5/3 180/5/3 179/5/3
f 193/5/3 181/5/3 192/5/3
f 194/5/3 181/5/3 193/5/3
f 195/5/3 181/5/3 194/5/3
f 196/5/3 181/5/3 195/5/3
f 197/5/3 181/5/3 196/5/3
f 198/5/3 181/5/3 197/5/3
f 199/2/3 182/2/3 181/2/3
f 199/5/3 181/5/3 198/5/3
f 200/5/3 189/5/3 188/5/3
f 200/2/3 182/2/3 199/2/3
f 200/5/3 187/5/3 186/5/3
f 200/5/3 185/5/3 184/5/3
f 200/5/3 188/5/3 187/5/3
f 200/5/3 184/5/3 183/5/3
f 200/5/3 186/5/3 185/5/3
f 200/5/3 183/5/3 182/5/3
f 201/5/3 189/5/3 200/5/3
f 202/5/3 189/5/3 201/5/3
f 203/5/3 189/5/3 202/5/3
f 204/5/3 189/5/3 203/5/3
f 205/5/3 189/5/3 204/5/3
f 206/5/3 189/5/3 205/5/3
f 207/2/3 190/2/3 189/2/3
f 207/5/3 189/5/3 206/5/3
f 208/2/3 22/2/3 190/2/3
f 208/2/3 190/2/3 207/2/3
f 209/2/3 191/2/3 21/2/3
f 209/4/3 192/4/3 191/4/3
f 210/5/3 193/5/3 192/5/3
f 210/4/3 192/4/3 209/4/3
f 211/4/3 194/4/3 193/4/3
f 211/5/3 193/5/3 210/5/3
f 212/5/3 195/5/3 194/5/3
f 212/4/3 194/4/3 211/4/3
f 213/4/3 196/4/3 195/4/3
f 213/5/3 195/5/3 212/5/3
f 214/5/3 197/5/3 196/5/3
f 214/4/3 196/4/3 213/4/3
f 215/4/3 198/4/3 197/4/3
f 215/5/3 197/5/3 214/5/3
f 216/5/3 199/5/3 198/5/3
f 216/4/3 198/4/3 215/4/3
f 217/4/3 200/4/3 199/4/3
f 217/5/3 199/5/3 216/5/3
f 218/5/3 201/5/3 200/5/3
f 218/4/3 200/4/3 217/4/3
f 219/4/3 202/4/3 201/4/3
f 219/5/3 201/5/3 218/5/3
f 220/5/3 203/5/3 202/5/3
f 220/4/3 202/4/3 219/4/3
f 221/4/3 204/4/3 203/4/3
f 221/5/3 203/5/3 220/5/3
f 222/5/3 205/5/3 204/5/3
f 222/4/3 204/4/3 221/4/3
f 223/4/3 206/4/3 205/4/3
f 223/5/3 205/5/3 222/5/3
f 224/5/3 207/5/3 206/5/3
f 224/4/3 206/4/3 223/4/3
f 225/4/3 208/4/3 207/4/3
f 225/5/3 207/5/3 224/5/3
f 226/2/3 22/2/3 208/2/3
f 226/4/3 208/4/3 225/4/3
f 227/2/3 211/2/3 210/2/3
f 227/2/3 210/2/3 209/2/3
f 227/2/3 209/2/3 21/2/3
f 228/2/3 211/2/3 227/2/3
f 229/5/3 215/5/3 214/5/3
f 229/2/3 211/2/3 228/2/3
f 229/5/3 213/5/3 212/5/3
f 229/5/3 212/5/3 211/5/3
f 229/5/3 220/5/3 219/5/3
f 229/5/3 219/5/3 218/5/3
f 229/5/3 218/5/3 217/5/3
f 229/5/3 217/5/3 216/5/3
f 229/5/3 216/5/3 215/5/3
f 229/5/3 214/5/3 213/5/3
f 229/5/3 224/5/3 223/5/3
f 229/5/3 221/5/3 220/5/3
f 229/5/3 223/5/3 222/5/3
f 229/5/3 222/5/3 221/5/3
f 230/5/3 224/5/3 229/5/3
f 231/5/3 224/5/3 230/5/3
f 232/5/3 224/5/3 231/5/3
f 233/5/3 224/5/3 232/5/3
f 234/5/3 224/5/3 233/5/3
f 235/5/3 224/5/3 234/5/3
f 236/5/3 224/5/3 235/5/3
f 237/5/3 224/5/3 236/5/3
f 238/5/3 224/5/3 237/5/3
f 239/5/3 224/5/3 238/5/3
f 240/5/3 224/5/3 239/5/3
f 241/5/3 224/5/3 240/5/3
f 242/2/3 225/2/3 224/2/3
f 242/5/3 224/5/3 241/5/3
f 242/2/3 226/2/3 225/2/3
f 243/2/3 226/2/3 242/2/3
f 244/2/3 22/2/3 226/2/3
f 244/2/3 226/2/3 243/2/3
f 245/4/3 228/4/3 227/4/3
f 245/2/3 227/2/3 21/2/3
f 246/2/3 229/2/3 228/2/3
f 246/4/3 228/4/3 245/4/3
f 247/4/3 230/4/3 229/4/3
f 247/2/3 229/2/3 246/2/3
f 248/5/3 231/5/3 230/5/3
f 248/4/3 230/4/3 247/4/3
f 249/4/3 232/4/3 231/4/3
f 249/5/3 231/5/3 248/5/3
f 250/5/3 233/5/3 232/5/3
f 250/4/3 232/4/3 249/4/3
f 251/4/3 234/4/3 233/4/3
f 251/5/3 233/5/3 250/5/3
f 252/5/3 235/5/3 234/5/3
f 252/4/3 234/4/3 251/4/3
f 253/4/3 236/4/3 235/4/3
f 253/5/3 235/5/3 252/5/3
f 254/5/3 237/5/3 236/5/3
f 254/4/3 236/4/3 253/4/3
f 255/4/3 238/4/3 237/4/3
f 255/5/3 237/5/3 254/5/3
f 256/5/3 239/5/3 238/5/3
f 256/4/3 238/4/3 255/4/3
f 257/4/3 240/4/3 239/4/3
f 257/5/3 239/5/3 256/5/3
f 258/5/3 241/5/3 240/5/3
f 258/4/3 240/4/3 257/4/3
f 259/4/3 242/4/3 241/4/3
f 259/5/3 241/5/3 258/5/3
f 260/2/3 243/2/3 242/2/3
f 260/4/3 242/4/3 259/4/3
f 261/4/3 244/4/3 243/4/3
f 261/2/3 243/2/3 260/2/3
f 262/2/3 22/2/3 244/2/3
f 262/4/3 244/4/3 261/4/3
f 263/2/3 245/2/3 21/2/3
f 263/2/3 246/2/3 245/2/3
f 263/2/3 247/2/3 246/2/3
f 263/2/3 248/2/3 247/2/3
f 263/2/3 249/2/3 248/2/3
f 264/2/3 249/2/3 263/2/3
f 265/2/3 249/2/3 264/2/3
f 266/2/3 249/2/3 265/2/3
f 267/5/3 257/5/3 256/5/3
f 267/2/3 249/2/3 266/2/3
f 267/5/3 256/5/3 255/5/3
f 267/5/3 258/5/3 257/5/3
f 267/5/3 255/5/3 254/5/3
f 267/5/3 254/5/3 253/5/3
f 267/5/3 253/5/3 252/5/3
f 267/5/3 252/5/3 251/5/3
f 267/5/3 251/5/3 250/5/3
f 267/5/3 250/5/3 249/5/3
f 268/5/3 258/5/3 267/5/3
f 269/5/3 258/5/3 268/5/3
f 270/5/3 258/5/3 269/5/3
f 271/5/3 258/5/3 270/5/3
f 272/5/3 258/5/3 271/5/3
f 273/5/3 258/5/3 272/5/3
f 274/5/3 258/5/3 273/5/3
f 275/5/3 258/5/3 274/5/3
f 276/2/3 261/2/3 260/2/3
f 276/5/3 258/5/3 275/5/3
f 276/2/3 260/2/3 259/2/3
f 276/2/3 259/2/3 258/2/3
f 276/2/3 262/2/3 261/2/3
f 277/2/3 262/2/3 276/2/3
f 278/2/3 262/2/3 277/2/3
f 279/2/3 262/2/3 278/2/3
f 280/2/3 22/2/3 262/2/3
f 280/2/3 262/2/3 279/2/3
f 281/4/3 270/4/3 269/4/3
f 281/5/3 271/5/3 270/5/3
f 282/4/3 272/4/3 271/4/3
f 282/5/3 271/5/3 281/5/3
f 283/5/3 273/5/3 272/5/3
f 283/4/3 272/4/3 282/4/3
f 284/4/3 274/4/3 273/4/3
f 284/5/3 273/5/3 283/5/3
f 285/4/3 264/4/3 263/4/3
f 285/2/3 263/2/3 21/2/3
f 286/2/3 265/2/3 264/2/3
f 286/4/3 264/4/3 285/4/3
f 287/4/3 266/4/3 265/4/3
f 287/2/3 265/2/3 286/2/3
f 288/2/3 267/2/3 266/2/3
f 288/4/3 266/4/3 287/4/3
f 289/4/3 268/4/3 267/4/3
f 289/2/3 267/2/3 288/2/3
f 290/2/3 269/2/3 268/2/3
f 290/4/3 268/4/3 289/4/3
f 291/4/3 281/4/3 269/4/3
f 291/2/3 269/2/3 290/2/3
f 292/2/3 282/2/3 281/2/3
f 292/4/3 281/4/3 291/4/3
f 293/4/3 283/4/3 282/4/3
f 293/2/3 282/2/3 292/2/3
f 294/2/3 284/2/3 283/2/3
f 294/4/3 283/4/3 293/4/3
f 295/4/3 274/4/3 284/4/3
f 295/2/3 284/2/3 294/2/3
f 296/2/3 275/2/3 274/2/3
f 296/4/3 274/4/3 295/4/3
f 297/4/3 276/4/3 275/4/3
f 297/2/3 275/2/3 296/2/3
f 298/2/3 277/2/3 276/2/3
f 298/4/3 276/4/3 297/4/3
f 299/4/3 278/4/3 277/4/3
f 299/2/3 277/2/3 298/2/3
f 300/2/3 279/2/3 278/2/3
f 300/4/3 278/4/3 299/4/3
f 301/4/3 280/4/3 279/4/3
f 301/2/3 279/2/3 300/2/3
f 302/2/3 22/2/3 280/2/3
f 302/4/3 280/4/3 301/4/3
f 303/2/3 295/2/3 294/2/3
f 303/2/3 292/2/3 291/2/3
f 303/2/3 302/2/3 301/2/3
f 303/2/3 298/2/3 297/2/3
f 303/2/3 297/2/3 296/2/3
f 303/2/3 296/2/3 295/2/3
f 303/2/3 300/2/3 299/2/3
f 303/2/3 301/2/3 300/2/3
f 303/2/3 289/2/3 288/2/3
f 303/2/3 288/2/3 287/2/3
f 303/2/3 287/2/3 286/2/3
f 303/2/3 293/2/3 292/2/3
f 303/2/3 294/2/3 293/2/3
f 303/2/3 290/2/3 289/2/3
f 303/2/3 299/2/3 298/2/3
f 303/2/3 285/2/3 21/2/3
f 303/2/3 291/2/3 290/2/3
f 303/2/3 286/2/3 285/2/3
f 304/2/3 22/2/3 302/2/3
f 304/2/3 302/2/3 303/2/3
f 308/3/3 306/3/3 305/3/3
f 309/2/3 307/2/3 306/2/3
f 309/3/3 306/3/3 308/3/3
f 310/2/3 307/2/3 309/2/3
f 311/3/4 312/3/4 314/3/4
f 312/2/4 313/2/4 315/2/4
f 314/3/4 312/3/4 315/3/4
f 315/2/4 313/2/4 316/2/4
f 317/2/4 318/2/4 319/2/4
f 319/2/4 318/2/4 320/2/4
f 323/2/5 322/2/5 321/2/5
f 324/2/5 322/2/5 323/2/5
f 325/2/5 323/2/5 321/2/5
f 325/1/5 324/1/5 323/1/5
f 326/2/5 322/2/5 324/2/5
f 326/1/5 324/1/5 325/1/5
f 327/2/5 325/2/5 321/2/5
f 327/2/5 326/2/5 325/2/5
f 328/2/5 322/2/5 326/2/5
f 328/2/5 326/2/5 327/2/5
f 329/2/6 330/2/6 331/2/6
f 331/2/6 330/2/6 332/2/6
f 329/2/6 331/2/6 333/2/6
f 332/2/6 330/2/6 334/2/6
f 329/2/6 333/2/6 335/2/6
f 333/2/6 334/2/6 335/2/6
f 334/2/6 330/2/6 336/2/6
f 335/2/6 334/2/6 336/2/6
f 337/2/6 338/2/6 339/2/6
f 339/2/6 338/2/6 340/2/6
