# MagicaVoxel @ Ephtracy

# group
o 

# material
mtllib Lamp.mtl
usemtl palette

# normals
vn -1 0 0
vn 1 0 0
vn 0 0 1
vn 0 0 -1
vn 0 -1 0
vn 0 1 0

# texcoords
vt 0.306641 0.5
vt 0.958984 0.5
vt 0.962891 0.5

# verts
v 0 2 0
v 0 2 -0.5
v 0 2.2 0
v 0 2.2 -0.5
v 0.1 2.5 -0.1
v 0.1 2.5 -0.4
v 0.1 2.6 -0.1
v 0.1 2.6 -0.4
v 0.2 2.2 -0.2
v 0.2 2.2 -0.3
v 0.2 2.5 -0.2
v 0.2 2.5 -0.3
v 0.3 2.1 -0.2
v 0.3 2.1 -0.3
v 0.3 2.2 -0.2
v 0.3 2.2 -0.3
v 0.4 2 -0.1
v 0.4 2 -0.4
v 0.4 2.1 -0.1
v 0.4 2.1 -0.4
v 0.1 2 -0.1
v 0.1 2 -0.4
v 0.1 2.1 -0.1
v 0.1 2.1 -0.4
v 0.2 2.1 -0.2
v 0.2 2.1 -0.3
v 0.2 2.2 -0.2
v 0.2 2.2 -0.3
v 0.3 2.2 -0.2
v 0.3 2.2 -0.3
v 0.3 2.5 -0.2
v 0.3 2.5 -0.3
v 0.4 2.5 -0.1
v 0.4 2.5 -0.4
v 0.4 2.6 -0.1
v 0.4 2.6 -0.4
v 0.5 2 0
v 0.5 2 -0.5
v 0.5 2.2 0
v 0.5 2.2 -0.5
v 0 2 0
v 0 2.2 0
v 0.5 2 0
v 0.5 2.2 0
v 0.1 2.5 -0.1
v 0.1 2.6 -0.1
v 0.4 2.5 -0.1
v 0.4 2.6 -0.1
v 0.2 2.2 -0.2
v 0.2 2.5 -0.2
v 0.3 2.2 -0.2
v 0.3 2.5 -0.2
v 0.2 2.1 -0.3
v 0.2 2.2 -0.3
v 0.3 2.1 -0.3
v 0.3 2.2 -0.3
v 0.1 2 -0.4
v 0.1 2.1 -0.4
v 0.4 2 -0.4
v 0.4 2.1 -0.4
v 0.1 2 -0.1
v 0.1 2.1 -0.1
v 0.4 2 -0.1
v 0.4 2.1 -0.1
v 0.2 2.1 -0.2
v 0.2 2.2 -0.2
v 0.3 2.1 -0.2
v 0.3 2.2 -0.2
v 0.2 2.2 -0.3
v 0.2 2.5 -0.3
v 0.3 2.2 -0.3
v 0.3 2.5 -0.3
v 0.1 2.5 -0.4
v 0.1 2.6 -0.4
v 0.4 2.5 -0.4
v 0.4 2.6 -0.4
v 0 2 -0.5
v 0 2.2 -0.5
v 0.5 2 -0.5
v 0.5 2.2 -0.5
v 0 2 0
v 0.5 2 0
v 0.1 2 -0.1
v 0.4 2 -0.1
v 0.1 2 -0.4
v 0.4 2 -0.4
v 0 2 -0.5
v 0.5 2 -0.5
v 0.1 2.1 -0.1
v 0.4 2.1 -0.1
v 0.2 2.1 -0.2
v 0.3 2.1 -0.2
v 0.2 2.1 -0.3
v 0.3 2.1 -0.3
v 0.1 2.1 -0.4
v 0.4 2.1 -0.4
v 0.2 2.2 -0.2
v 0.3 2.2 -0.2
v 0.2 2.2 -0.3
v 0.3 2.2 -0.3
v 0.1 2.5 -0.1
v 0.4 2.5 -0.1
v 0.2 2.5 -0.2
v 0.3 2.5 -0.2
v 0.2 2.5 -0.3
v 0.3 2.5 -0.3
v 0.1 2.5 -0.4
v 0.4 2.5 -0.4
v 0 2.2 0
v 0.5 2.2 0
v 0.2 2.2 -0.2
v 0.3 2.2 -0.2
v 0.2 2.2 -0.3
v 0.3 2.2 -0.3
v 0 2.2 -0.5
v 0.5 2.2 -0.5
v 0.1 2.6 -0.1
v 0.4 2.6 -0.1
v 0.1 2.6 -0.4
v 0.4 2.6 -0.4

# faces
f 3/1/1 2/1/1 1/1/1
f 4/1/1 2/1/1 3/1/1
f 7/2/1 6/2/1 5/2/1
f 8/2/1 6/2/1 7/2/1
f 11/3/1 10/3/1 9/3/1
f 12/3/1 10/3/1 11/3/1
f 15/1/1 14/1/1 13/1/1
f 16/1/1 14/1/1 15/1/1
f 19/1/1 18/1/1 17/1/1
f 20/1/1 18/1/1 19/1/1
f 21/1/2 22/1/2 23/1/2
f 23/1/2 22/1/2 24/1/2
f 25/1/2 26/1/2 27/1/2
f 27/1/2 26/1/2 28/1/2
f 29/3/2 30/3/2 31/3/2
f 31/3/2 30/3/2 32/3/2
f 33/2/2 34/2/2 35/2/2
f 35/2/2 34/2/2 36/2/2
f 37/1/2 38/1/2 39/1/2
f 39/1/2 38/1/2 40/1/2
f 43/1/3 42/1/3 41/1/3
f 44/1/3 42/1/3 43/1/3
f 47/2/3 46/2/3 45/2/3
f 48/2/3 46/2/3 47/2/3
f 51/3/3 50/3/3 49/3/3
f 52/3/3 50/3/3 51/3/3
f 55/1/3 54/1/3 53/1/3
f 56/1/3 54/1/3 55/1/3
f 59/1/3 58/1/3 57/1/3
f 60/1/3 58/1/3 59/1/3
f 61/1/4 62/1/4 63/1/4
f 63/1/4 62/1/4 64/1/4
f 65/1/4 66/1/4 67/1/4
f 67/1/4 66/1/4 68/1/4
f 69/3/4 70/3/4 71/3/4
f 71/3/4 70/3/4 72/3/4
f 73/2/4 74/2/4 75/2/4
f 75/2/4 74/2/4 76/2/4
f 77/1/4 78/1/4 79/1/4
f 79/1/4 78/1/4 80/1/4
f 83/1/5 82/1/5 81/1/5
f 84/1/5 82/1/5 83/1/5
f 85/1/5 83/1/5 81/1/5
f 86/1/5 82/1/5 84/1/5
f 87/1/5 85/1/5 81/1/5
f 87/1/5 86/1/5 85/1/5
f 88/1/5 82/1/5 86/1/5
f 88/1/5 86/1/5 87/1/5
f 91/1/5 90/1/5 89/1/5
f 92/1/5 90/1/5 91/1/5
f 93/1/5 91/1/5 89/1/5
f 94/1/5 90/1/5 92/1/5
f 95/1/5 93/1/5 89/1/5
f 95/1/5 94/1/5 93/1/5
f 96/1/5 90/1/5 94/1/5
f 96/1/5 94/1/5 95/1/5
f 99/3/5 98/3/5 97/3/5
f 100/3/5 98/3/5 99/3/5
f 103/2/5 102/2/5 101/2/5
f 104/2/5 102/2/5 103/2/5
f 105/2/5 103/2/5 101/2/5
f 106/2/5 102/2/5 104/2/5
f 107/2/5 105/2/5 101/2/5
f 107/2/5 106/2/5 105/2/5
f 108/2/5 102/2/5 106/2/5
f 108/2/5 106/2/5 107/2/5
f 109/1/6 110/1/6 111/1/6
f 111/1/6 110/1/6 112/1/6
f 109/1/6 111/1/6 113/1/6
f 112/1/6 110/1/6 114/1/6
f 109/1/6 113/1/6 115/1/6
f 113/1/6 114/1/6 115/1/6
f 114/1/6 110/1/6 116/1/6
f 115/1/6 114/1/6 116/1/6
f 117/2/6 118/2/6 119/2/6
f 119/2/6 118/2/6 120/2/6
