# MagicaVoxel @ Ephtracy

# group
o 

# material
mtllib Safe.mtl
usemtl palette

# normals
vn -1 0 0
vn 1 0 0
vn 0 0 1
vn 0 0 -1
vn 0 -1 0
vn 0 1 0

# texcoords
vt 0.306641 0.5
vt 0.919922 0.5
vt 0.951172 0.5
vt 0.958984 0.5
vt 0.990234 0.5

# verts
v 0 2 0
v 0 2 -0.1
v 0 2 -4
v 0 6 0
v 0 6 -0.1
v 0 6 -4
v 4 2 0
v 4 2 -0.1
v 4 2 -4
v 4 6 0
v 4 6 -0.1
v 4 6 -4
v 0 2 0
v 0 6 0
v 0.1 2.1 0
v 0.1 5.9 0
v 0.2 2.2 0
v 0.2 5.8 0
v 0.3 2.3 0
v 0.3 5.7 0
v 3.7 2.3 0
v 3.7 5.7 0
v 3.8 2.2 0
v 3.8 5.8 0
v 3.9 2.1 0
v 3.9 5.9 0
v 4 2 0
v 4 6 0
v 0 2 -4
v 0 6 -4
v 4 2 -4
v 4 6 -4
v 0 2 0
v 4 2 0
v 0 2 -0.1
v 4 2 -0.1
v 0 2 -4
v 4 2 -4
v 0 6 0
v 4 6 0
v 0 6 -0.1
v 4 6 -0.1
v 0 6 -4
v 4 6 -4

# faces
f 4/3/1 2/3/1 1/3/1
f 5/2/1 3/2/1 2/2/1
f 5/3/1 2/3/1 4/3/1
f 6/2/1 3/2/1 5/2/1
f 7/3/2 8/3/2 10/3/2
f 8/2/2 9/2/2 11/2/2
f 10/3/2 8/3/2 11/3/2
f 11/2/2 9/2/2 12/2/2
f 15/3/3 14/3/3 13/3/3
f 16/3/3 14/3/3 15/3/3
f 17/5/3 16/5/3 15/5/3
f 18/5/3 16/5/3 17/5/3
f 19/4/3 18/4/3 17/4/3
f 20/4/3 18/4/3 19/4/3
f 21/4/3 19/4/3 17/4/3
f 21/5/3 20/5/3 19/5/3
f 22/4/3 18/4/3 20/4/3
f 22/5/3 20/5/3 21/5/3
f 23/5/3 17/5/3 15/5/3
f 23/4/3 21/4/3 17/4/3
f 23/4/3 22/4/3 21/4/3
f 24/4/3 18/4/3 22/4/3
f 24/4/3 22/4/3 23/4/3
f 24/5/3 16/5/3 18/5/3
f 25/3/3 15/3/3 13/3/3
f 25/5/3 23/5/3 15/5/3
f 25/5/3 24/5/3 23/5/3
f 26/5/3 16/5/3 24/5/3
f 26/5/3 24/5/3 25/5/3
f 26/3/3 14/3/3 16/3/3
f 27/3/3 25/3/3 13/3/3
f 27/3/3 26/3/3 25/3/3
f 28/3/3 14/3/3 26/3/3
f 28/3/3 26/3/3 27/3/3
f 29/2/4 30/2/4 31/2/4
f 31/2/4 30/2/4 32/2/4
f 35/3/5 34/3/5 33/3/5
f 36/3/5 34/3/5 35/3/5
f 37/2/5 36/2/5 35/2/5
f 38/2/5 36/2/5 37/2/5
f 39/3/6 40/3/6 41/3/6
f 41/3/6 40/3/6 42/3/6
f 41/2/6 42/2/6 43/2/6
f 43/2/6 42/2/6 44/2/6
