# MagicaVoxel @ Ephtracy

# group
o 

# material
mtllib Toy Piano 3.mtl
usemtl palette

# normals
vn -1 0 0
vn 1 0 0
vn 0 0 1
vn 0 0 -1
vn 0 -1 0
vn 0 1 0

# texcoords
vt 0.927734 0.5
vt 0.990234 0.5

# verts
v 0 2 -0.2
v 0 2 -1.5
v 0 2.6 -0.2
v 0 2.6 -0.3
v 0 2.8 -0.3
v 0 2.8 -0.4
v 0 2.9 -0.4
v 0 2.9 -0.5
v 0 3 -0.5
v 0 3 -0.6
v 0 3.3 -0.6
v 0 3.3 -0.7
v 0 3.7 -0.6
v 0 3.7 -0.7
v 0 3.8 -0.5
v 0 3.8 -0.6
v 0 4 -0.2
v 0 4 -0.5
v 0 4.3 -0.2
v 0 4.3 -1
v 0 5.6 -1
v 0 5.6 -1.5
v 3.7 3.3 -0.8
v 3.7 3.3 -1.2
v 3.7 3.4 -0.8
v 3.7 3.4 -1.2
v 3.8 2 -0.2
v 3.8 2 -1.5
v 3.8 2.6 -0.2
v 3.8 2.6 -0.3
v 3.8 2.8 -0.3
v 3.8 2.8 -0.4
v 3.8 2.9 -0.4
v 3.8 2.9 -0.5
v 3.8 3 -0.5
v 3.8 3 -0.6
v 3.8 3.3 -0.6
v 3.8 3.3 -0.7
v 3.8 3.3 -0.8
v 3.8 3.3 -1.5
v 3.8 3.7 -0.6
v 3.8 3.7 -0.7
v 3.8 3.7 -0.8
v 3.8 3.8 -0.5
v 3.8 3.8 -0.6
v 3.8 3.8 -0.7
v 3.8 4 -0.4
v 3.8 4 -0.5
v 3.8 4 -0.6
v 3.8 4.1 -0.4
v 3.8 4.1 -0.5
v 3.8 4.1 -0.6
v 3.9 4.2 -0.2
v 3.9 4.2 -1.1
v 3.9 4.3 -0.2
v 3.9 4.3 -1
v 3.9 5.5 -1
v 3.9 5.5 -1.1
v 0.1 4.2 -0.2
v 0.1 4.2 -1.1
v 0.1 4.3 -0.2
v 0.1 4.3 -1
v 0.1 5.5 -1
v 0.1 5.5 -1.1
v 0.2 2 -0.2
v 0.2 2 -1.5
v 0.2 2.6 -0.2
v 0.2 2.6 -0.3
v 0.2 2.8 -0.3
v 0.2 2.8 -0.4
v 0.2 2.9 -0.4
v 0.2 2.9 -0.5
v 0.2 3 -0.5
v 0.2 3 -0.6
v 0.2 3.3 -0.6
v 0.2 3.3 -0.7
v 0.2 3.3 -1.2
v 0.2 3.3 -1.5
v 0.2 3.4 -0.8
v 0.2 3.4 -1.2
v 0.2 3.5 -0.7
v 0.2 3.5 -0.8
v 3.6 4 -0.3
v 3.6 4 -0.5
v 3.6 4.1 -0.3
v 3.6 4.1 -0.5
v 3.7 3.5 -0.7
v 3.7 3.5 -0.8
v 3.7 3.7 -0.6
v 3.7 3.7 -0.7
v 3.7 3.7 -0.8
v 3.7 3.8 -0.5
v 3.7 3.8 -0.6
v 3.7 3.8 -0.7
v 3.7 4.1 -0.5
v 3.7 4.1 -0.6
v 4 2 -0.2
v 4 2 -1.5
v 4 2.6 -0.2
v 4 2.6 -0.3
v 4 2.8 -0.3
v 4 2.8 -0.4
v 4 2.9 -0.4
v 4 2.9 -0.5
v 4 3 -0.5
v 4 3 -0.6
v 4 3.3 -0.6
v 4 3.3 -0.7
v 4 3.7 -0.6
v 4 3.7 -0.7
v 4 3.8 -0.5
v 4 3.8 -0.6
v 4 4 -0.2
v 4 4 -0.3
v 4 4 -0.4
v 4 4 -0.5
v 4 4.1 -0.3
v 4 4.1 -0.4
v 4 4.3 -0.2
v 4 4.3 -1
v 4 5.6 -1
v 4 5.6 -1.5
v 0 2 -0.2
v 0 2.6 -0.2
v 0 4 -0.2
v 0 4.3 -0.2
v 0.1 4.2 -0.2
v 0.1 4.3 -0.2
v 0.2 2 -0.2
v 0.2 2.6 -0.2
v 3.8 2 -0.2
v 3.8 2.6 -0.2
v 3.9 4.2 -0.2
v 3.9 4.3 -0.2
v 4 2 -0.2
v 4 2.6 -0.2
v 4 4 -0.2
v 4 4.3 -0.2
v 0 2.6 -0.3
v 0 2.8 -0.3
v 0.2 2.6 -0.3
v 0.2 2.8 -0.3
v 3.8 2.6 -0.3
v 3.8 2.8 -0.3
v 4 2.6 -0.3
v 4 2.8 -0.3
v 0 2.8 -0.4
v 0 2.9 -0.4
v 0.2 2.8 -0.4
v 0.2 2.9 -0.4
v 3.8 2.8 -0.4
v 3.8 2.9 -0.4
v 3.8 4 -0.4
v 3.8 4.1 -0.4
v 4 2.8 -0.4
v 4 2.9 -0.4
v 4 4 -0.4
v 4 4.1 -0.4
v 0 2.9 -0.5
v 0 3 -0.5
v 0 3.8 -0.5
v 0 4 -0.5
v 0.2 2.9 -0.5
v 0.2 3 -0.5
v 3.6 4 -0.5
v 3.6 4.1 -0.5
v 3.7 3.8 -0.5
v 3.7 4.1 -0.5
v 3.8 2.9 -0.5
v 3.8 3 -0.5
v 3.8 3.8 -0.5
v 3.8 4 -0.5
v 4 2.9 -0.5
v 4 3 -0.5
v 4 3.8 -0.5
v 4 4 -0.5
v 0 3 -0.6
v 0 3.3 -0.6
v 0 3.7 -0.6
v 0 3.8 -0.6
v 0.2 3 -0.6
v 0.2 3.3 -0.6
v 3.7 3.7 -0.6
v 3.7 3.8 -0.6
v 3.7 4.1 -0.6
v 3.8 3 -0.6
v 3.8 3.3 -0.6
v 3.8 3.7 -0.6
v 3.8 3.8 -0.6
v 3.8 4 -0.6
v 3.8 4.1 -0.6
v 4 3 -0.6
v 4 3.3 -0.6
v 4 3.7 -0.6
v 4 3.8 -0.6
v 0 3.3 -0.7
v 0 3.7 -0.7
v 0.2 3.3 -0.7
v 0.2 3.5 -0.7
v 3.7 3.5 -0.7
v 3.7 3.7 -0.7
v 3.7 3.8 -0.7
v 3.8 3.3 -0.7
v 3.8 3.7 -0.7
v 3.8 3.8 -0.7
v 4 3.3 -0.7
v 4 3.7 -0.7
v 0.2 3.4 -0.8
v 0.2 3.5 -0.8
v 3.7 3.3 -0.8
v 3.7 3.4 -0.8
v 3.7 3.5 -0.8
v 3.7 3.7 -0.8
v 3.8 3.3 -0.8
v 3.8 3.7 -0.8
v 0 4.3 -1
v 0 5.6 -1
v 0.1 4.3 -1
v 0.1 5.5 -1
v 3.9 4.3 -1
v 3.9 5.5 -1
v 4 4.3 -1
v 4 5.6 -1
v 0.1 4.2 -1.1
v 0.1 5.5 -1.1
v 3.9 4.2 -1.1
v 3.9 5.5 -1.1
v 0.2 3.3 -1.2
v 0.2 3.4 -1.2
v 3.7 3.3 -1.2
v 3.7 3.4 -1.2
v 3.6 4 -0.3
v 3.6 4.1 -0.3
v 4 4 -0.3
v 4 4.1 -0.3
v 0 2 -1.5
v 0 5.6 -1.5
v 0.2 2 -1.5
v 0.2 3.3 -1.5
v 3.8 2 -1.5
v 3.8 3.3 -1.5
v 4 2 -1.5
v 4 5.6 -1.5
v 0 2 -0.2
v 0.2 2 -0.2
v 3.8 2 -0.2
v 4 2 -0.2
v 0 2 -1.5
v 0.2 2 -1.5
v 3.8 2 -1.5
v 4 2 -1.5
v 3.7 3.3 -0.8
v 3.8 3.3 -0.8
v 0.2 3.3 -1.2
v 3.7 3.3 -1.2
v 0.2 3.3 -1.5
v 3.8 3.3 -1.5
v 0.2 3.4 -0.8
v 3.7 3.4 -0.8
v 0.2 3.4 -1.2
v 3.7 3.4 -1.2
v 0.2 3.5 -0.7
v 3.7 3.5 -0.7
v 0.2 3.5 -0.8
v 3.7 3.5 -0.8
v 0 3.7 -0.6
v 3.7 3.7 -0.6
v 3.8 3.7 -0.6
v 4 3.7 -0.6
v 0 3.7 -0.7
v 3.7 3.7 -0.7
v 3.8 3.7 -0.7
v 4 3.7 -0.7
v 3.7 3.7 -0.8
v 3.8 3.7 -0.8
v 0 3.8 -0.5
v 3.7 3.8 -0.5
v 3.8 3.8 -0.5
v 4 3.8 -0.5
v 0 3.8 -0.6
v 3.7 3.8 -0.6
v 3.8 3.8 -0.6
v 4 3.8 -0.6
v 3.7 3.8 -0.7
v 3.8 3.8 -0.7
v 0 4 -0.2
v 4 4 -0.2
v 3.6 4 -0.3
v 4 4 -0.3
v 3.8 4 -0.4
v 4 4 -0.4
v 0 4 -0.5
v 3.6 4 -0.5
v 3.8 4 -0.5
v 4 4 -0.5
v 3.6 4.1 -0.3
v 4 4.1 -0.3
v 3.8 4.1 -0.4
v 4 4.1 -0.4
v 3.6 4.1 -0.5
v 3.7 4.1 -0.5
v 3.8 4.1 -0.5
v 3.7 4.1 -0.6
v 3.8 4.1 -0.6
v 0.1 5.5 -1
v 3.9 5.5 -1
v 0.1 5.5 -1.1
v 3.9 5.5 -1.1
v 0 2.6 -0.2
v 0.2 2.6 -0.2
v 3.8 2.6 -0.2
v 4 2.6 -0.2
v 0 2.6 -0.3
v 0.2 2.6 -0.3
v 3.8 2.6 -0.3
v 4 2.6 -0.3
v 0 2.8 -0.3
v 0.2 2.8 -0.3
v 3.8 2.8 -0.3
v 4 2.8 -0.3
v 0 2.8 -0.4
v 0.2 2.8 -0.4
v 3.8 2.8 -0.4
v 4 2.8 -0.4
v 0 2.9 -0.4
v 0.2 2.9 -0.4
v 3.8 2.9 -0.4
v 4 2.9 -0.4
v 0 2.9 -0.5
v 0.2 2.9 -0.5
v 3.8 2.9 -0.5
v 4 2.9 -0.5
v 0 3 -0.5
v 0.2 3 -0.5
v 3.8 3 -0.5
v 4 3 -0.5
v 0 3 -0.6
v 0.2 3 -0.6
v 3.8 3 -0.6
v 4 3 -0.6
v 0 3.3 -0.6
v 0.2 3.3 -0.6
v 3.8 3.3 -0.6
v 4 3.3 -0.6
v 0 3.3 -0.7
v 0.2 3.3 -0.7
v 3.8 3.3 -0.7
v 4 3.3 -0.7
v 0.1 4.2 -0.2
v 3.9 4.2 -0.2
v 0.1 4.2 -1.1
v 3.9 4.2 -1.1
v 0 4.3 -0.2
v 0.1 4.3 -0.2
v 3.9 4.3 -0.2
v 4 4.3 -0.2
v 0 4.3 -1
v 0.1 4.3 -1
v 3.9 4.3 -1
v 4 4.3 -1
v 0 5.6 -1
v 4 5.6 -1
v 0 5.6 -1.5
v 4 5.6 -1.5

# faces
f 3/2/1 2/2/1 1/2/1
f 4/2/1 2/2/1 3/2/1
f 5/2/1 2/2/1 4/2/1
f 6/2/1 2/2/1 5/2/1
f 7/2/1 2/2/1 6/2/1
f 8/2/1 2/2/1 7/2/1
f 9/2/1 2/2/1 8/2/1
f 10/2/1 2/2/1 9/2/1
f 11/2/1 2/2/1 10/2/1
f 12/2/1 2/2/1 11/2/1
f 14/2/1 2/2/1 12/2/1
f 16/2/1 14/2/1 13/2/1
f 18/2/1 16/2/1 15/2/1
f 19/2/1 18/2/1 17/2/1
f 20/2/1 2/2/1 14/2/1
f 20/2/1 18/2/1 19/2/1
f 20/2/1 14/2/1 16/2/1
f 20/2/1 16/2/1 18/2/1
f 21/2/1 2/2/1 20/2/1
f 22/2/1 2/2/1 21/2/1
f 25/2/1 24/2/1 23/2/1
f 26/2/1 24/2/1 25/2/1
f 29/2/1 28/2/1 27/2/1
f 30/2/1 28/2/1 29/2/1
f 31/2/1 28/2/1 30/2/1
f 32/2/1 28/2/1 31/2/1
f 33/2/1 28/2/1 32/2/1
f 34/2/1 28/2/1 33/2/1
f 35/2/1 28/2/1 34/2/1
f 36/2/1 28/2/1 35/2/1
f 37/2/1 28/2/1 36/2/1
f 38/2/1 28/2/1 37/2/1
f 39/2/1 28/2/1 38/2/1
f 40/2/1 28/2/1 39/2/1
f 42/2/1 39/2/1 38/2/1
f 43/2/1 39/2/1 42/2/1
f 45/2/1 42/2/1 41/2/1
f 46/2/1 42/2/1 45/2/1
f 48/2/1 45/2/1 44/2/1
f 49/2/1 45/2/1 48/2/1
f 50/2/1 48/2/1 47/2/1
f 51/1/1 49/1/1 48/1/1
f 51/2/1 48/2/1 50/2/1
f 52/1/1 49/1/1 51/1/1
f 55/2/1 54/2/1 53/2/1
f 56/2/1 54/2/1 55/2/1
f 57/2/1 54/2/1 56/2/1
f 58/2/1 54/2/1 57/2/1
f 59/2/2 60/2/2 61/2/2
f 61/2/2 60/2/2 62/2/2
f 62/2/2 60/2/2 63/2/2
f 63/2/2 60/2/2 64/2/2
f 65/2/2 66/2/2 67/2/2
f 67/2/2 66/2/2 68/2/2
f 68/2/2 66/2/2 69/2/2
f 69/2/2 66/2/2 70/2/2
f 70/2/2 66/2/2 71/2/2
f 71/2/2 66/2/2 72/2/2
f 72/2/2 66/2/2 73/2/2
f 73/2/2 66/2/2 74/2/2
f 74/2/2 66/2/2 75/2/2
f 75/2/2 66/2/2 76/2/2
f 76/2/2 66/2/2 77/2/2
f 77/2/2 66/2/2 78/2/2
f 76/2/2 77/2/2 79/2/2
f 79/2/2 77/2/2 80/2/2
f 76/2/2 79/2/2 81/2/2
f 81/2/2 79/2/2 82/2/2
f 83/2/2 84/2/2 85/2/2
f 85/2/2 84/2/2 86/2/2
f 87/2/2 88/2/2 90/2/2
f 90/2/2 88/2/2 91/2/2
f 89/2/2 90/2/2 93/2/2
f 93/2/2 90/2/2 94/2/2
f 92/2/2 93/2/2 95/2/2
f 95/2/2 93/2/2 96/2/2
f 97/2/2 98/2/2 99/2/2
f 99/2/2 98/2/2 100/2/2
f 100/2/2 98/2/2 101/2/2
f 101/2/2 98/2/2 102/2/2
f 102/2/2 98/2/2 103/2/2
f 103/2/2 98/2/2 104/2/2
f 104/2/2 98/2/2 105/2/2
f 105/2/2 98/2/2 106/2/2
f 106/2/2 98/2/2 107/2/2
f 107/2/2 98/2/2 108/2/2
f 108/2/2 98/2/2 110/2/2
f 109/2/2 110/2/2 112/2/2
f 111/2/2 112/2/2 116/2/2
f 113/2/2 114/2/2 117/2/2
f 115/2/2 116/2/2 118/2/2
f 113/2/2 117/2/2 119/2/2
f 117/2/2 118/2/2 119/2/2
f 110/2/2 98/2/2 120/2/2
f 119/2/2 118/2/2 120/2/2
f 112/2/2 110/2/2 120/2/2
f 118/2/2 116/2/2 120/2/2
f 116/2/2 112/2/2 120/2/2
f 120/2/2 98/2/2 121/2/2
f 121/2/2 98/2/2 122/2/2
f 127/2/3 126/2/3 125/2/3
f 128/2/3 126/2/3 127/2/3
f 129/2/3 124/2/3 123/2/3
f 130/2/3 124/2/3 129/2/3
f 133/2/3 127/2/3 125/2/3
f 135/2/3 132/2/3 131/2/3
f 136/2/3 132/2/3 135/2/3
f 137/2/3 134/2/3 133/2/3
f 137/2/3 133/2/3 125/2/3
f 138/2/3 134/2/3 137/2/3
f 141/2/3 140/2/3 139/2/3
f 142/2/3 140/2/3 141/2/3
f 145/2/3 144/2/3 143/2/3
f 146/2/3 144/2/3 145/2/3
f 149/2/3 148/2/3 147/2/3
f 150/2/3 148/2/3 149/2/3
f 155/2/3 152/2/3 151/2/3
f 156/2/3 152/2/3 155/2/3
f 157/2/3 154/2/3 153/2/3
f 158/2/3 154/2/3 157/2/3
f 163/2/3 160/2/3 159/2/3
f 164/2/3 160/2/3 163/2/3
f 165/2/3 162/2/3 161/2/3
f 167/2/3 165/2/3 161/2/3
f 167/2/3 166/2/3 165/2/3
f 168/2/3 166/2/3 167/2/3
f 173/2/3 170/2/3 169/2/3
f 174/2/3 170/2/3 173/2/3
f 175/2/3 172/2/3 171/2/3
f 176/2/3 172/2/3 175/2/3
f 181/2/3 178/2/3 177/2/3
f 182/2/3 178/2/3 181/2/3
f 183/2/3 180/2/3 179/2/3
f 184/2/3 180/2/3 183/2/3
f 189/2/3 185/2/3 184/2/3
f 190/2/3 185/2/3 189/2/3
f 191/2/3 185/2/3 190/2/3
f 192/2/3 187/2/3 186/2/3
f 193/2/3 187/2/3 192/2/3
f 194/2/3 189/2/3 188/2/3
f 195/2/3 189/2/3 194/2/3
f 198/2/3 197/2/3 196/2/3
f 199/2/3 197/2/3 198/2/3
f 200/2/3 197/2/3 199/2/3
f 201/2/3 197/2/3 200/2/3
f 204/2/3 202/2/3 201/2/3
f 205/2/3 202/2/3 204/2/3
f 206/2/3 204/2/3 203/2/3
f 207/2/3 204/2/3 206/2/3
f 211/2/3 209/2/3 208/2/3
f 212/2/3 209/2/3 211/2/3
f 214/2/3 211/2/3 210/2/3
f 214/2/3 213/2/3 212/2/3
f 214/2/3 212/2/3 211/2/3
f 215/2/3 213/2/3 214/2/3
f 218/2/3 217/2/3 216/2/3
f 219/2/3 217/2/3 218/2/3
f 221/2/3 217/2/3 219/2/3
f 222/2/3 221/2/3 220/2/3
f 223/2/3 217/2/3 221/2/3
f 223/2/3 221/2/3 222/2/3
f 226/2/3 225/2/3 224/2/3
f 227/2/3 225/2/3 226/2/3
f 230/2/3 229/2/3 228/2/3
f 231/2/3 229/2/3 230/2/3
f 232/2/4 233/2/4 234/2/4
f 234/2/4 233/2/4 235/2/4
f 236/2/4 237/2/4 238/2/4
f 238/2/4 237/2/4 239/2/4
f 239/2/4 237/2/4 241/2/4
f 240/2/4 241/2/4 242/2/4
f 241/2/4 237/2/4 243/2/4
f 242/2/4 241/2/4 243/2/4
f 248/2/5 245/2/5 244/2/5
f 249/2/5 245/2/5 248/2/5
f 250/2/5 247/2/5 246/2/5
f 251/2/5 247/2/5 250/2/5
f 255/2/5 253/2/5 252/2/5
f 256/2/5 255/2/5 254/2/5
f 257/2/5 253/2/5 255/2/5
f 257/2/5 255/2/5 256/2/5
f 260/2/5 259/2/5 258/2/5
f 261/2/5 259/2/5 260/2/5
f 264/2/5 263/2/5 262/2/5
f 265/2/5 263/2/5 264/2/5
f 270/2/5 267/2/5 266/2/5
f 271/2/5 267/2/5 270/2/5
f 272/2/5 269/2/5 268/2/5
f 273/2/5 269/2/5 272/2/5
f 274/2/5 272/2/5 271/2/5
f 275/2/5 272/2/5 274/2/5
f 280/2/5 277/2/5 276/2/5
f 281/2/5 277/2/5 280/2/5
f 282/2/5 279/2/5 278/2/5
f 283/2/5 279/2/5 282/2/5
f 284/2/5 282/2/5 281/2/5
f 285/2/5 282/2/5 284/2/5
f 288/2/5 287/2/5 286/2/5
f 289/2/5 287/2/5 288/2/5
f 292/2/5 288/2/5 286/2/5
f 293/2/5 288/2/5 292/2/5
f 294/2/5 291/2/5 290/2/5
f 295/2/5 291/2/5 294/2/5
f 298/2/5 297/2/5 296/2/5
f 299/2/5 297/2/5 298/2/5
f 300/2/5 298/2/5 296/2/5
f 301/2/5 298/2/5 300/2/5
f 302/2/5 298/2/5 301/2/5
f 303/2/5 302/2/5 301/2/5
f 304/2/5 302/2/5 303/2/5
f 307/2/5 306/2/5 305/2/5
f 308/2/5 306/2/5 307/2/5
f 309/2/6 310/2/6 313/2/6
f 313/2/6 310/2/6 314/2/6
f 311/2/6 312/2/6 315/2/6
f 315/2/6 312/2/6 316/2/6
f 317/2/6 318/2/6 321/2/6
f 321/2/6 318/2/6 322/2/6
f 319/2/6 320/2/6 323/2/6
f 323/2/6 320/2/6 324/2/6
f 325/2/6 326/2/6 329/2/6
f 329/2/6 326/2/6 330/2/6
f 327/2/6 328/2/6 331/2/6
f 331/2/6 328/2/6 332/2/6
f 333/2/6 334/2/6 337/2/6
f 337/2/6 334/2/6 338/2/6
f 335/2/6 336/2/6 339/2/6
f 339/2/6 336/2/6 340/2/6
f 341/2/6 342/2/6 345/2/6
f 345/2/6 342/2/6 346/2/6
f 343/2/6 344/2/6 347/2/6
f 347/2/6 344/2/6 348/2/6
f 349/2/6 350/2/6 351/2/6
f 351/2/6 350/2/6 352/2/6
f 353/2/6 354/2/6 357/2/6
f 357/2/6 354/2/6 358/2/6
f 355/2/6 356/2/6 359/2/6
f 359/2/6 356/2/6 360/2/6
f 361/2/6 362/2/6 363/2/6
f 363/2/6 362/2/6 364/2/6
